Coordinates
version=1
nRows=19
nColumns=33
inDegrees=yes

Units are S.I. units (second, meters, Newtons, ...)
Angles are in degrees.

endheader
time	ground_thorax_rot_x	ground_thorax_rot_y	ground_thorax_rot_z	ground_thorax_tx	ground_thorax_ty	ground_thorax_tz	clav_prot_r	clav_elev_r	scapula_abduction_r	scapula_elevation_r	scapula_upward_rot_r	scapula_winging_r	shoulder_elv_r	plane_of_elev_r	axial_rot_r	elbow_flexion_r	pro_sup_r	wrist_flex_r	wrist_dev_r	clav_prot_l	clav_elev_l	scapula_abduction_l	scapula_elevation_l	scapula_upward_rot_l	scapula_winging_l	shoulder_elv_l	plane_of_elev_l	axial_rot_l	elbow_flexion_l	pro_sup_l	wrist_flex_l	wrist_dev_l
      1.16000000	     25.05846478	     44.94408453	     -1.05899118	      0.02265345	      1.00221613	     -0.05025441	    -22.57658187	     25.82887566	    -17.85931306	     17.37349130	     45.00000000	    -13.71785936	      3.12652668	    -88.44536536	      6.92198028	     86.15518240	    -10.36445403	     17.42922346	     -2.32274597	     23.27006549	    -22.89905406	    -45.00000000	     -3.80555739	    -45.00000000	     13.70058349	     61.67071293	     14.46777623	    -13.09406911	     56.71345288	      3.99298835	     32.83502942	     -9.82388471
      1.17000000	     24.93212496	     45.01283191	     -0.90006101	      0.02305560	      1.00244929	     -0.05069736	    -22.33206221	     25.77180399	    -17.33128669	     17.35311733	     45.00000000	    -13.64310832	      3.28197526	    -88.04796086	      7.05052793	     85.36305253	    -10.47629809	     17.10509051	     -2.27876134	     23.35962117	    -23.33959281	    -45.00000000	     -3.40138182	    -44.84349633	     13.51273490	     61.81204643	     14.64677507	    -13.33211312	     55.88681694	      4.12284941	     32.89063601	     -9.54744018
      1.18000000	     26.38603375	     48.51069834	     -5.36725266	      0.03127225	      1.01352227	     -0.05592068	    -32.83680376	     15.23808913	    -27.54946173	      7.84368587	     45.00000000	    -19.29536585	     90.69828677	    -70.76766765	     97.35090084	     89.29312852	    -14.19504212	     15.25336857	     -3.20585262	     24.53316113	    -25.94736100	    -45.00000000	      0.81977342	    -38.82913893	     12.32828160	     60.83533171	     10.96052550	    -16.73070813	     54.74785345	      1.06333071	     32.56104226	     -7.49318842
      1.19000000	     26.31815603	     48.70445386	     -5.29503361	      0.03166573	      1.01407790	     -0.05651775	    -32.63790267	     14.92141045	    -27.05923727	      7.61836816	     45.00000000	    -19.14475777	     90.51811017	    -70.65375431	     97.18479753	     88.59623588	    -14.43512190	     14.92030228	     -3.19293445	     24.64644710	    -26.51178422	    -45.00000000	      1.32925188	    -38.68368940	     11.98686492	     60.89123670	     11.11874837	    -16.72925819	     53.71120104	      1.27982127	     32.74453399	     -7.28363434
      1.20000000	     26.43483974	     48.57565176	     -5.82877441	      0.03206506	      1.01435186	     -0.05719470	    -32.38106272	     14.35071195	    -26.33920883	      7.20139345	     45.00000000	    -18.93124739	     89.67720777	    -70.60233553	     96.07975061	     88.13120961	    -15.73864774	     14.31150572	     -2.71550426	     24.76963926	    -26.98087067	    -45.00000000	      1.85731147	    -38.27806070	     11.69233028	     60.75704807	     11.58243273	    -15.80918441	     52.36152125	      1.43772486	     33.95530190	     -7.26337019
      1.21000000	     26.39140837	     48.65515329	     -5.72375374	      0.03226802	      1.01398595	     -0.05779806	    -32.20246854	     14.72729775	    -26.26595567	      7.51098844	     45.00000000	    -18.87294847	     86.54418484	    -70.25458312	     93.50256955	     87.31083963	    -19.05377035	     13.80788959	     -2.08128645	     24.80085407	    -27.19342121	    -45.00000000	      2.00257049	    -38.35484797	     11.56009482	     60.43681370	     12.57800067	    -15.22037513	     50.88148815	      2.19459709	     35.38400508	     -7.15028289
      1.22000000	     26.36102766	     48.73616275	     -5.55168946	      0.03271855	      1.01428526	     -0.05870668	    -31.92054354	     14.48933718	    -25.73770826	      7.36170199	     44.93816727	    -18.67943598	     86.37544724	    -69.92457137	     93.37093528	     86.51201438	    -19.14135461	     13.56296086	     -2.16595249	     24.88523292	    -27.65120492	    -45.00000000	      2.38088294	    -38.34260342	     11.26568207	     60.44719418	     12.72579356	    -15.49306953	     50.10930701	      2.40151092	     35.32101386	     -6.91743807
      1.23000000	     26.29966617	     48.70468217	     -5.78267814	      0.03262037	      1.01364828	     -0.05905635	    -31.59950706	     15.07421530	    -25.50972614	      7.83971829	     45.00000000	    -18.56397510	     81.51548786	    -70.14887984	     89.04596751	     85.41988729	    -22.40789030	     13.21631784	     -1.94297910	     24.92010901	    -27.71113937	    -45.00000000	      2.52474243	    -38.08224058	     11.22624228	     60.01507571	     13.90441814	    -14.85393130	     48.31533584	      2.91523198	     36.34150646	     -6.83061899
      1.24000000	     26.10866072	     48.82708009	     -5.53342905	      0.03300220	      1.01430141	     -0.05963742	    -31.41076770	     14.78279272	    -25.04217761	      7.63179152	     45.00000000	    -18.43621897	     81.14650974	    -69.87907745	     88.92478167	     84.54706674	    -22.49685890	     12.91792372	     -1.98790057	     25.01985482	    -28.21715878	    -45.00000000	      2.95955171	    -38.02635744	     10.88973250	     59.98319813	     13.94961023	    -14.76782690	     47.26659955	      3.15302637	     36.10100289	     -6.52916304
      1.25000000	     26.03616457	     48.62863587	     -5.73678211	      0.03332334	      1.01462764	     -0.06026948	    -31.15231872	     14.45192212	    -24.44580701	      7.39955405	     45.00000000	    -18.26211911	     79.48138148	    -69.58062473	     87.35649674	     83.70894961	    -23.35693662	     12.49570719	     -1.63178187	     25.10252494	    -28.50555581	    -45.00000000	      3.31138919	    -37.71239636	     10.68862759	     59.55457139	     14.41101884	    -13.80676396	     45.89713461	      3.28064947	     36.56056260	     -6.26337433
      1.26000000	     25.93578550	     48.70798800	     -5.52387743	      0.03334604	      1.01394605	     -0.06069434	    -30.88904435	     15.16896632	    -24.42553944	      7.98341116	     45.00000000	    -18.18690690	     75.58610588	    -69.27888161	     84.02420310	     82.53729342	    -25.33719328	     11.97103845	     -1.26425446	     25.12366559	    -28.58047604	    -45.00000000	      3.40271493	    -37.63184467	     10.63812760	     58.99594458	     15.34318687	    -13.49417491	     44.32788498	      3.64721852	     37.69898513	     -6.01058952
      1.27000000	     25.81467715	     48.86515316	     -5.39907062	      0.03368153	      1.01433746	     -0.06130181	    -30.67788907	     14.93124596	    -23.94970889	      7.81874720	     45.00000000	    -18.05371177	     75.19953151	    -69.11919506	     83.86420394	     81.66682594	    -25.42492384	     11.69293651	     -1.37135761	     25.22456851	    -29.07032671	    -45.00000000	      3.83738472	    -37.54838035	     10.29842322	     59.08484501	     15.42109587	    -13.62669580	     43.30880721	      3.93207641	     37.45060501	     -5.69874972
      1.28000000	     25.86603997	     48.73292256	     -5.62670948	      0.03378814	      1.01364972	     -0.06176686	    -30.31114683	     15.45237160	    -23.65490111	      8.26191239	     45.00000000	    -17.90343330	     71.23458682	    -68.89458140	     80.17235748	     80.49392408	    -27.14767924	     11.25929797	     -1.01215817	     25.25709504	    -29.19525094	    -45.00000000	      3.97597349	    -37.45302798	     10.20797454	     58.72398454	     16.41431701	    -12.88818513	     41.77141563	      4.32851198	     38.34240708	     -5.55800097
      1.29000000	     25.58610470	     48.72537932	     -5.30081829	      0.03409010	      1.01427044	     -0.06219971	    -30.13566483	     15.19999942	    -23.22228794	      8.08143884	     45.00000000	    -17.79523241	     70.36568652	    -68.47716238	     79.74560964	     79.47521811	    -27.35251244	     10.93362039	     -1.04827962	     25.33753032	    -29.61420987	    -45.00000000	      4.31797951	    -37.46648696	      9.91077991	     58.62847426	     16.43208758	    -12.42848966	     40.65877873	      4.53617104	     37.98664078	     -5.39799235
      1.30000000	     25.55884315	     48.90271841	     -5.26654100	      0.03446806	      1.01440567	     -0.06290566	    -29.93540861	     15.04166341	    -22.80418351	      7.97718270	     45.00000000	    -17.68402472	     69.99416167	    -68.25110727	     79.66888699	     78.58613591	    -27.46606361	     10.59699448	     -1.01802654	     25.43210982	    -30.05615950	    -45.00000000	      4.71871842	    -37.37756569	      9.58957931	     58.64197637	     16.59969013	    -12.61170781	     39.58238261	      4.77962595	     38.02543850	     -5.08207527
      1.31000000	     25.40717488	     49.10021688	     -5.19577397	      0.03477617	      1.01503694	     -0.06323419	    -29.89988290	     14.70058135	    -22.55657247	      7.71322869	     45.00000000	    -17.62954096	     69.18232763	    -68.09097110	     78.85068746	     77.60667405	    -27.92316694	     10.24375471	     -0.74259316	     25.52639228	    -30.46386345	    -45.00000000	      5.11413172	    -37.22780760	      9.28615869	     58.34523515	     16.92981705	    -11.98499710	     37.91677306	      4.92079126	     38.23306539	     -4.82458142
      1.32000000	     25.44752258	     48.89492534	     -5.35724607	      0.03468716	      1.01318543	     -0.06369510	    -29.43508482	     15.83779933	    -22.44264936	      8.64873589	     45.00000000	    -17.48432102	     63.76792423	    -67.59187139	     73.98757657	     76.13555987	    -30.58242423	      9.81153081	     -0.11803263	     25.45473254	    -30.22734689	    -45.00000000	      4.81111363	    -37.51284351	      9.47309365	     57.96993210	     18.77105506	    -11.13416085	     36.11707932	      5.45605284	     39.73344530	     -4.78360943
      1.33000000	     25.41016455	     48.73361446	     -5.28283840	      0.03478657	      1.01326153	     -0.06375303	    -29.06582784	     16.23166466	    -22.06532697	      8.99414065	     45.00000000	    -17.32231049	     60.71426228	    -67.20155200	     71.43883440	     74.70686322	    -31.34537063	      9.81819188	     -0.33050704	     25.52228637	    -30.71344375	    -45.00000000	      5.08681303	    -37.86420310	      9.12511451	     58.22397655	     19.06214010	    -10.23784470	     34.90398876	      5.92519402	     39.13599261	     -4.99609204
      1.34000000	     25.11104928	     48.78581296	     -5.02439978	      0.03511859	      1.01360178	     -0.06420380	    -28.96895563	     15.96471793	    -21.74507466	      8.79408621	     45.00000000	    -17.26302006	     59.95755317	    -66.77414101	     71.13182191	     73.60106003	    -31.64027423	      9.31240377	      0.00426487	     25.57580716	    -30.95189171	    -45.00000000	      5.30707284	    -37.80872378	      8.94465968	     57.96846119	     19.32214938	     -9.67464053	     33.59782432	      6.06716851	     39.39874689	     -4.75288441
